<svg width="45" height="45" viewBox="0 0 45 45" fill="none" xmlns="http://www.w3.org/2000/svg">
<path fill-rule="evenodd" clip-rule="evenodd" d="M22.5 43.5246C34.1116 43.5246 43.5246 34.1116 43.5246 22.5C43.5246 10.8884 34.1116 1.47541 22.5 1.47541C10.8884 1.47541 1.47541 10.8884 1.47541 22.5C1.47541 34.1116 10.8884 43.5246 22.5 43.5246ZM22.5 45C34.9264 45 45 34.9264 45 22.5C45 10.0736 34.9264 0 22.5 0C10.0736 0 0 10.0736 0 22.5C0 34.9264 10.0736 45 22.5 45Z" fill="white"/>
<path fill-rule="evenodd" clip-rule="evenodd" d="M18.2061 11.647C18.5117 11.647 18.7594 11.8947 18.7594 12.2003V16.3224C18.7594 16.628 18.5117 16.8757 18.2061 16.8757C17.9006 16.8757 17.6528 16.628 17.6528 16.3224V12.2003C17.6528 11.8947 17.9006 11.647 18.2061 11.647Z" fill="white"/>
<path fill-rule="evenodd" clip-rule="evenodd" d="M23.063 11.8091C23.2791 12.0252 23.2791 12.3755 23.063 12.5915L18.9409 16.7137C18.7248 16.9298 18.3745 16.9298 18.1584 16.7137C17.9423 16.4976 17.9423 16.1473 18.1584 15.9312L22.2805 11.8091C22.4966 11.593 22.8469 11.593 23.063 11.8091Z" fill="white"/>
<path fill-rule="evenodd" clip-rule="evenodd" d="M21.0019 22.5534C20.7859 22.7694 20.4356 22.7694 20.2195 22.5534L18.1584 20.4923C17.9424 20.2762 17.9424 19.9259 18.1584 19.7098C18.3745 19.4938 18.7248 19.4938 18.9409 19.7098L21.0019 21.7709C21.218 21.987 21.218 22.3373 21.0019 22.5534Z" fill="white"/>
<path fill-rule="evenodd" clip-rule="evenodd" d="M27.1852 19.7098C26.9691 19.4938 26.6188 19.4938 26.4027 19.7098L24.3416 21.7709C24.1256 21.987 24.1256 22.3373 24.3416 22.5534C24.5577 22.7694 24.908 22.7694 25.1241 22.5534L27.1852 20.4923C27.4012 20.2762 27.4012 19.9259 27.1852 19.7098Z" fill="white"/>
<path fill-rule="evenodd" clip-rule="evenodd" d="M27.3472 20.1011C27.3472 20.4066 27.0995 20.6544 26.7939 20.6544L18.5496 20.6544C18.244 20.6544 17.9963 20.4066 17.9963 20.1011C17.9963 19.7955 18.244 19.5478 18.5496 19.5478L26.7939 19.5478C27.0995 19.5478 27.3472 19.7955 27.3472 20.1011Z" fill="white"/>
<path fill-rule="evenodd" clip-rule="evenodd" d="M22.2805 11.8091C22.4966 11.593 22.8469 11.593 23.063 11.8091L27.1851 15.9312C27.4012 16.1473 27.4012 16.4976 27.1851 16.7137C26.969 16.9297 26.6187 16.9297 26.4027 16.7137L22.2805 12.5915C22.0645 12.3755 22.0645 12.0251 22.2805 11.8091Z" fill="white"/>
<path fill-rule="evenodd" clip-rule="evenodd" d="M20.3149 18.4312C20.0989 18.6473 19.7485 18.6473 19.5325 18.4312L17.8149 16.7137C17.5989 16.4976 17.5989 16.1473 17.8149 15.9312C18.031 15.7151 18.3813 15.7151 18.5974 15.9312L20.3149 17.6488C20.531 17.8648 20.531 18.2152 20.3149 18.4312Z" fill="white"/>
<path fill-rule="evenodd" clip-rule="evenodd" d="M27.1375 11.647C26.8319 11.647 26.5842 11.8947 26.5842 12.2003V16.3224C26.5842 16.628 26.8319 16.8757 27.1375 16.8757C27.4431 16.8757 27.6908 16.628 27.6908 16.3224V12.2003C27.6908 11.8947 27.4431 11.647 27.1375 11.647Z" fill="white"/>
<path fill-rule="evenodd" clip-rule="evenodd" d="M25.0287 18.4312C25.2448 18.6473 25.5951 18.6473 25.8111 18.4312L27.5287 16.7137C27.7448 16.4976 27.7448 16.1473 27.5287 15.9312C27.3126 15.7151 26.9623 15.7151 26.7463 15.9312L25.0287 17.6488C24.8126 17.8648 24.8126 18.2152 25.0287 18.4312Z" fill="white"/>
<path d="M22.5616 22.5L23.3441 23.2825L22.5616 24.0649L21.7792 23.2825L22.5616 22.5Z" fill="white"/>
<path d="M19.6108 25.082L20.3933 25.8644L19.6108 26.6469L18.8284 25.8644L19.6108 25.082Z" fill="white"/>
<path d="M25.4956 25.082L26.2781 25.8644L25.4956 26.6469L24.7132 25.8644L25.4956 25.082Z" fill="white"/>
<path d="M28.4464 27.6639L29.2289 28.4464L28.4464 29.2288L27.664 28.4464L28.4464 27.6639Z" fill="white"/>
<path d="M25.4956 30.2459L26.2781 31.0284L25.4956 31.8108L24.7132 31.0284L25.4956 30.2459Z" fill="white"/>
<path d="M22.9136 32.8279L23.696 33.6103L22.9136 34.3928L22.1311 33.6103L22.9136 32.8279Z" fill="white"/>
<path d="M22.9136 27.6639L23.696 28.4464L22.9136 29.2288L22.1311 28.4464L22.9136 27.6639Z" fill="white"/>
<path d="M19.9628 30.2459L20.7452 31.0284L19.9628 31.8108L19.1803 31.0284L19.9628 30.2459Z" fill="white"/>
<path d="M17.0288 27.6639L17.8113 28.4464L17.0288 29.2288L16.2464 28.4464L17.0288 27.6639Z" fill="white"/>
<path fill-rule="evenodd" clip-rule="evenodd" d="M19.935 23.6065L15.1399 28.4016L14.7487 28.0104L19.5437 23.2153L19.935 23.6065Z" fill="white"/>
<path fill-rule="evenodd" clip-rule="evenodd" d="M19.935 23.6065L15.1399 28.4016L14.7487 28.0104L19.5437 23.2153L19.935 23.6065Z" fill="white"/>
<path fill-rule="evenodd" clip-rule="evenodd" d="M25.8196 23.6066L18.0737 31.3525L17.6825 30.9612L25.4284 23.2153L25.8196 23.6066Z" fill="white"/>
<path fill-rule="evenodd" clip-rule="evenodd" d="M25.8196 23.6066L18.0737 31.3525L17.6825 30.9612L25.4284 23.2153L25.8196 23.6066Z" fill="white"/>
<path fill-rule="evenodd" clip-rule="evenodd" d="M28.4017 26.1885L20.6558 33.9344L20.2645 33.5432L28.0104 25.7973L28.4017 26.1885Z" fill="white"/>
<path fill-rule="evenodd" clip-rule="evenodd" d="M28.4017 26.1885L20.6558 33.9344L20.2645 33.5432L28.0104 25.7973L28.4017 26.1885Z" fill="white"/>
<path fill-rule="evenodd" clip-rule="evenodd" d="M21.0643 25.4276L19.1746 23.6299L19.5559 23.229L21.4456 25.0267L21.0643 25.4276Z" fill="white"/>
<path fill-rule="evenodd" clip-rule="evenodd" d="M21.0643 25.4276L19.1746 23.6299L19.5559 23.229L21.4456 25.0267L21.0643 25.4276Z" fill="white"/>
<path fill-rule="evenodd" clip-rule="evenodd" d="M29.877 28.4016L25.0819 23.6066L25.4731 23.2153L30.2682 28.0104L29.877 28.4016Z" fill="white"/>
<path fill-rule="evenodd" clip-rule="evenodd" d="M29.877 28.4016L25.0819 23.6066L25.4731 23.2153L30.2682 28.0104L29.877 28.4016Z" fill="white"/>
<path fill-rule="evenodd" clip-rule="evenodd" d="M18.5049 27.9862L16.6152 26.1885L16.9966 25.7877L18.8863 27.5853L18.5049 27.9862Z" fill="white"/>
<path fill-rule="evenodd" clip-rule="evenodd" d="M18.5049 27.9862L16.6152 26.1885L16.9966 25.7877L18.8863 27.5853L18.5049 27.9862Z" fill="white"/>
<path fill-rule="evenodd" clip-rule="evenodd" d="M21.8078 30.5682L19.9181 28.7705L20.2994 28.3696L22.1891 30.1673L21.8078 30.5682Z" fill="white"/>
<path fill-rule="evenodd" clip-rule="evenodd" d="M21.8078 30.5682L19.9181 28.7705L20.2994 28.3696L22.1891 30.1673L21.8078 30.5682Z" fill="white"/>
<path fill-rule="evenodd" clip-rule="evenodd" d="M24.3443 28.0328L22.8689 26.5574L23.2601 26.1661L24.7355 27.6415L24.3443 28.0328Z" fill="white"/>
<path fill-rule="evenodd" clip-rule="evenodd" d="M24.3443 28.0328L22.8689 26.5574L23.2601 26.1661L24.7355 27.6415L24.3443 28.0328Z" fill="white"/>
<path fill-rule="evenodd" clip-rule="evenodd" d="M27.3405 30.937L25.4508 29.1393L25.8322 28.7385L27.7218 30.5361L27.3405 30.937Z" fill="white"/>
<path fill-rule="evenodd" clip-rule="evenodd" d="M27.3405 30.937L25.4508 29.1393L25.8322 28.7385L27.7218 30.5361L27.3405 30.937Z" fill="white"/>
<path fill-rule="evenodd" clip-rule="evenodd" d="M24.7586 33.519L22.8689 31.7213L23.2502 31.3204L25.1399 33.1181L24.7586 33.519Z" fill="white"/>
<path fill-rule="evenodd" clip-rule="evenodd" d="M24.7586 33.519L22.8689 31.7213L23.2502 31.3204L25.1399 33.1181L24.7586 33.519Z" fill="white"/>
<path fill-rule="evenodd" clip-rule="evenodd" d="M19.3108 22.5C19.3468 22.536 19.3468 22.5944 19.3108 22.6304L13.778 28.1632L13.6476 28.0328L19.1804 22.5C19.2164 22.464 19.2748 22.464 19.3108 22.5Z" fill="#3D3D3D"/>
<path fill-rule="evenodd" clip-rule="evenodd" d="M24.4747 23.2377C24.5107 23.2737 24.5107 23.3321 24.4747 23.3681L22.6305 25.2124L22.5 25.082L24.3443 23.2377C24.3803 23.2017 24.4387 23.2017 24.4747 23.2377Z" fill="#3D3D3D"/>
<path fill-rule="evenodd" clip-rule="evenodd" d="M26.6225 26.1233C26.6586 26.1593 26.6586 26.2177 26.6225 26.2537L25.516 27.3603L25.3856 27.2299L26.4921 26.1233C26.5281 26.0873 26.5865 26.0873 26.6225 26.1233Z" fill="#3D3D3D"/>
<path fill-rule="evenodd" clip-rule="evenodd" d="M23.9103 25.7545C23.9463 25.7185 24.0047 25.7185 24.0407 25.7545L25.5161 27.2299C25.5521 27.2659 25.5521 27.3243 25.5161 27.3603C25.4801 27.3963 25.4217 27.3963 25.3857 27.3603L23.9103 25.8849C23.8742 25.8489 23.8742 25.7905 23.9103 25.7545Z" fill="#3D3D3D"/>
<path fill-rule="evenodd" clip-rule="evenodd" d="M24.4094 28.3364C24.4454 28.3724 24.4454 28.4308 24.4094 28.4668L22.934 29.9422L22.8036 29.8118L24.279 28.3364C24.315 28.3004 24.3734 28.3004 24.4094 28.3364Z" fill="#3D3D3D"/>
<path fill-rule="evenodd" clip-rule="evenodd" d="M21.3282 28.3364C21.3642 28.3004 21.4226 28.3004 21.4586 28.3364L22.934 29.8119C22.9701 29.8479 22.9701 29.9063 22.934 29.9423C22.898 29.9783 22.8396 29.9783 22.8036 29.9423L21.3282 28.4669C21.2922 28.4308 21.2922 28.3725 21.3282 28.3364Z" fill="#3D3D3D"/>
<path fill-rule="evenodd" clip-rule="evenodd" d="M26.9914 31.2873C27.0274 31.3233 27.0274 31.3817 26.9914 31.4177L25.516 32.8931L25.3856 32.7627L26.861 31.2873C26.897 31.2513 26.9554 31.2513 26.9914 31.2873Z" fill="#3D3D3D"/>
<path fill-rule="evenodd" clip-rule="evenodd" d="M23.9103 31.2873C23.9463 31.2512 24.0047 31.2512 24.0407 31.2873L25.5161 32.7627C25.5521 32.7987 25.5521 32.8571 25.5161 32.8931C25.4801 32.9291 25.4217 32.9291 25.3857 32.8931L23.9103 31.4177C23.8742 31.3816 23.8742 31.3233 23.9103 31.2873Z" fill="#3D3D3D"/>
<path fill-rule="evenodd" clip-rule="evenodd" d="M29.9422 28.7053C29.9783 28.7413 29.9783 28.7997 29.9422 28.8357L28.4668 30.3111L28.3364 30.1807L29.8118 28.7053C29.8478 28.6693 29.9062 28.6693 29.9422 28.7053Z" fill="#3D3D3D"/>
<path fill-rule="evenodd" clip-rule="evenodd" d="M26.8611 28.7053C26.8971 28.6693 26.9555 28.6693 26.9915 28.7053L28.4669 30.1807C28.5029 30.2167 28.5029 30.2751 28.4669 30.3111C28.4309 30.3471 28.3725 30.3471 28.3365 30.3111L26.8611 28.8357C26.8251 28.7997 26.8251 28.7413 26.8611 28.7053Z" fill="#3D3D3D"/>
<path fill-rule="evenodd" clip-rule="evenodd" d="M21.8275 30.9184C21.8635 30.9544 21.8635 31.0128 21.8275 31.0488L19.9832 32.893L19.8528 32.7626L21.6971 30.9184C21.7331 30.8824 21.7915 30.8824 21.8275 30.9184Z" fill="#3D3D3D"/>
<path fill-rule="evenodd" clip-rule="evenodd" d="M18.3774 31.2873C18.4134 31.2512 18.4718 31.2512 18.5078 31.2873L19.9832 32.7627C20.0193 32.7987 20.0193 32.8571 19.9832 32.8931C19.9472 32.9291 19.8888 32.9291 19.8528 32.8931L18.3774 31.4177C18.3414 31.3816 18.3414 31.3233 18.3774 31.2873Z" fill="#3D3D3D"/>
<path fill-rule="evenodd" clip-rule="evenodd" d="M24.4094 33.8692C24.4454 33.9053 24.4454 33.9636 24.4094 33.9997L22.5651 35.8439L22.4347 35.7135L24.279 33.8692C24.315 33.8332 24.3734 33.8332 24.4094 33.8692Z" fill="#3D3D3D"/>
<path fill-rule="evenodd" clip-rule="evenodd" d="M20.9593 31.6561C20.9953 31.6201 21.0537 31.6201 21.0897 31.6561L22.5652 33.1315C22.6012 33.1675 22.6012 33.2259 22.5652 33.2619C22.5291 33.2979 22.4708 33.2979 22.4347 33.2619L20.9593 31.7865C20.9233 31.7505 20.9233 31.6921 20.9593 31.6561Z" fill="#3D3D3D"/>
<path fill-rule="evenodd" clip-rule="evenodd" d="M19.2456 27.9676C19.2816 28.0036 19.2816 28.062 19.2456 28.098L17.0325 30.3111L16.9021 30.1807L19.1152 27.9676C19.1512 27.9316 19.2096 27.9316 19.2456 27.9676Z" fill="#3D3D3D"/>
<path fill-rule="evenodd" clip-rule="evenodd" d="M15.4266 28.7053C15.4626 28.6693 15.521 28.6693 15.557 28.7053L17.0324 30.1807C17.0684 30.2167 17.0684 30.2751 17.0324 30.3111C16.9964 30.3471 16.938 30.3471 16.902 30.3111L15.4266 28.8357C15.3906 28.7997 15.3906 28.7413 15.4266 28.7053Z" fill="#3D3D3D"/>
<path fill-rule="evenodd" clip-rule="evenodd" d="M21.8275 25.3856C21.8635 25.4216 21.8635 25.48 21.8275 25.516L19.6144 27.7291L19.484 27.5987L21.6971 25.3856C21.7331 25.3496 21.7915 25.3496 21.8275 25.3856Z" fill="#3D3D3D"/>
<path fill-rule="evenodd" clip-rule="evenodd" d="M18.0085 26.1233C18.0445 26.0873 18.1029 26.0873 18.1389 26.1233L19.6143 27.5987C19.6504 27.6347 19.6504 27.6931 19.6143 27.7291C19.5783 27.7651 19.5199 27.7651 19.4839 27.7291L18.0085 26.2537C17.9725 26.2177 17.9725 26.1593 18.0085 26.1233Z" fill="#3D3D3D"/>
<path fill-rule="evenodd" clip-rule="evenodd" d="M20.6557 23.2377L22.5 25.082L22.6304 24.9516L20.7861 23.1073C20.7501 23.0713 20.6917 23.0713 20.6557 23.1073C20.6197 23.1433 20.6197 23.2017 20.6557 23.2377Z" fill="#3D3D3D"/>
<path fill-rule="evenodd" clip-rule="evenodd" d="M26.2368 22.4348L31.7696 27.9676L31.6392 28.098L26.1064 22.5652C26.0704 22.5292 26.0704 22.4708 26.1064 22.4348C26.1424 22.3988 26.2008 22.3988 26.2368 22.4348Z" fill="#3D3D3D"/>
<path fill-rule="evenodd" clip-rule="evenodd" d="M22.5 37.0157C22.464 37.0517 22.4056 37.0517 22.3696 37.0157L13.5172 28.1632L13.6476 28.0328L22.5 36.8853C22.536 36.9213 22.536 36.9797 22.5 37.0157Z" fill="#3D3D3D"/>
<path fill-rule="evenodd" clip-rule="evenodd" d="M22.5 36.8852L31.7044 28.0328L31.8323 28.1657L22.6279 37.0182C22.5912 37.0535 22.5328 37.0523 22.4975 37.0156C22.4622 36.9789 22.4633 36.9205 22.5 36.8852Z" fill="#3D3D3D"/>
<path fill-rule="evenodd" clip-rule="evenodd" d="M7.11735 9.50436C7.1956 9.43915 7.31189 9.44972 7.3771 9.52797L9.22136 11.7411C9.28657 11.8193 9.276 11.9356 9.19775 12.0008C9.1195 12.066 9.00321 12.0555 8.938 11.9772L7.09374 9.76411C7.02853 9.68586 7.03911 9.56956 7.11735 9.50436Z" fill="white"/>
<path fill-rule="evenodd" clip-rule="evenodd" d="M7.2355 9.46161C7.33735 9.46161 7.41992 9.54418 7.41992 9.64604V11.8591C7.41992 11.961 7.33735 12.0436 7.2355 12.0436C7.13364 12.0436 7.05107 11.961 7.05107 11.8591V9.64604C7.05107 9.54418 7.13364 9.46161 7.2355 9.46161Z" fill="white"/>
<path fill-rule="evenodd" clip-rule="evenodd" d="M9.07973 9.46161C9.18159 9.46161 9.26416 9.54418 9.26416 9.64604V11.8591C9.26416 11.961 9.18159 12.0436 9.07973 12.0436C8.97788 12.0436 8.89531 11.961 8.89531 11.8591V9.64604C8.89531 9.54418 8.97788 9.46161 9.07973 9.46161Z" fill="white"/>
<path d="M8.25381 10.4792L8.89527 9.63111L9.0797 9.6311L9.06754 9.90976L8.25381 10.4792Z" fill="white"/>
<path d="M7.97322 10.9221L7.41993 11.8442L7.23551 12.0286L7.2355 11.4754L7.97322 10.9221Z" fill="white"/>
<path fill-rule="evenodd" clip-rule="evenodd" d="M35.8879 9.50436C35.9661 9.43915 36.0824 9.44972 36.1476 9.52797L37.9919 11.7411C38.0571 11.8193 38.0465 11.9356 37.9683 12.0008C37.89 12.066 37.7737 12.0555 37.7085 11.9772L35.8642 9.76411C35.799 9.68586 35.8096 9.56956 35.8879 9.50436Z" fill="white"/>
<path fill-rule="evenodd" clip-rule="evenodd" d="M36.006 9.46161C36.1079 9.46161 36.1904 9.54418 36.1904 9.64604V11.8591C36.1904 11.961 36.1079 12.0436 36.006 12.0436C35.9041 12.0436 35.8216 11.961 35.8216 11.8591V9.64604C35.8216 9.54418 35.9041 9.46161 36.006 9.46161Z" fill="white"/>
<path fill-rule="evenodd" clip-rule="evenodd" d="M37.8502 9.46161C37.9521 9.46161 38.0347 9.54418 38.0347 9.64604V11.8591C38.0347 11.961 37.9521 12.0436 37.8502 12.0436C37.7484 12.0436 37.6658 11.961 37.6658 11.8591V9.64604C37.6658 9.54418 37.7484 9.46161 37.8502 9.46161Z" fill="white"/>
<path d="M37.0243 10.4792L37.6658 9.63111L37.8502 9.6311L37.838 9.90976L37.0243 10.4792Z" fill="white"/>
<path d="M36.7437 10.9221L36.1904 11.8442L36.006 12.0286L36.006 11.4754L36.7437 10.9221Z" fill="white"/>
<path fill-rule="evenodd" clip-rule="evenodd" d="M9.69926 37.1683C9.77751 37.1031 9.8938 37.1137 9.95901 37.1919L11.8033 39.405C11.8685 39.4833 11.8579 39.5996 11.7797 39.6648C11.7014 39.73 11.5851 39.7194 11.5199 39.6412L9.67565 37.428C9.61044 37.3498 9.62101 37.2335 9.69926 37.1683Z" fill="white"/>
<path fill-rule="evenodd" clip-rule="evenodd" d="M9.8174 37.1255C9.91926 37.1255 10.0018 37.2081 10.0018 37.31V39.5231C10.0018 39.6249 9.91926 39.7075 9.8174 39.7075C9.71555 39.7075 9.63298 39.6249 9.63298 39.5231V37.31C9.63298 37.2081 9.71555 37.1255 9.8174 37.1255Z" fill="white"/>
<path fill-rule="evenodd" clip-rule="evenodd" d="M11.6616 37.1255C11.7635 37.1255 11.8461 37.2081 11.8461 37.31V39.5231C11.8461 39.6249 11.7635 39.7075 11.6616 39.7075C11.5598 39.7075 11.4772 39.6249 11.4772 39.5231V37.31C11.4772 37.2081 11.5598 37.1255 11.6616 37.1255Z" fill="white"/>
<path d="M10.8357 38.1431L11.4772 37.295L11.6616 37.295L11.6494 37.5736L10.8357 38.1431Z" fill="white"/>
<path d="M10.555 38.586L10.0017 39.5081L9.81729 39.6926L9.81729 39.1393L10.555 38.586Z" fill="white"/>
<path fill-rule="evenodd" clip-rule="evenodd" d="M32.9371 37.1683C33.0153 37.1031 33.1316 37.1137 33.1968 37.1919L35.0411 39.405C35.1063 39.4833 35.0957 39.5996 35.0175 39.6648C34.9392 39.73 34.8229 39.7194 34.7577 39.6412L32.9134 37.428C32.8482 37.3498 32.8588 37.2335 32.9371 37.1683Z" fill="white"/>
<path fill-rule="evenodd" clip-rule="evenodd" d="M33.0552 37.1255C33.1571 37.1255 33.2396 37.2081 33.2396 37.31V39.5231C33.2396 39.6249 33.1571 39.7075 33.0552 39.7075C32.9533 39.7075 32.8708 39.6249 32.8708 39.5231V37.31C32.8708 37.2081 32.9533 37.1255 33.0552 37.1255Z" fill="white"/>
<path fill-rule="evenodd" clip-rule="evenodd" d="M34.8994 37.1255C35.0013 37.1255 35.0839 37.2081 35.0839 37.31V39.5231C35.0839 39.6249 35.0013 39.7075 34.8994 39.7075C34.7976 39.7075 34.715 39.6249 34.715 39.5231V37.31C34.715 37.2081 34.7976 37.1255 34.8994 37.1255Z" fill="white"/>
<path d="M34.0735 38.1431L34.715 37.295L34.8994 37.295L34.8872 37.5736L34.0735 38.1431Z" fill="white"/>
<path d="M33.7929 38.586L33.2396 39.5081L33.0552 39.6926L33.0552 39.1393L33.7929 38.586Z" fill="white"/>
</svg>
