<svg width="223" height="223" viewBox="0 0 223 223" fill="none" xmlns="http://www.w3.org/2000/svg">
<path fill-rule="evenodd" clip-rule="evenodd" d="M90.2211 48.3088C91.7353 48.3088 92.9629 49.5364 92.9629 51.0506V71.4781C92.9629 72.9923 91.7353 74.2199 90.2211 74.2199C88.7068 74.2199 87.4793 72.9923 87.4793 71.4781V51.0506C87.4793 49.5364 88.7068 48.3088 90.2211 48.3088Z" fill="#303030"/>
<path fill-rule="evenodd" clip-rule="evenodd" d="M114.29 49.1118C115.361 50.1826 115.361 51.9186 114.29 52.9893L93.8623 73.4168C92.7915 74.4875 91.0555 74.4875 89.9848 73.4168C88.914 72.3461 88.914 70.61 89.9848 69.5393L110.412 49.1118C111.483 48.0411 113.219 48.0411 114.29 49.1118Z" fill="#303030"/>
<path fill-rule="evenodd" clip-rule="evenodd" d="M104.076 102.356C103.005 103.426 101.269 103.426 100.198 102.356L89.9847 92.142C88.914 91.0713 88.914 89.3353 89.9847 88.2645C91.0555 87.1938 92.7915 87.1938 93.8622 88.2645L104.076 98.4783C105.147 99.549 105.147 101.285 104.076 102.356Z" fill="#303030"/>
<path fill-rule="evenodd" clip-rule="evenodd" d="M134.717 88.2646C133.646 87.1938 131.91 87.1938 130.84 88.2646L120.626 98.4783C119.555 99.549 119.555 101.285 120.626 102.356C121.697 103.427 123.433 103.427 124.503 102.356L134.717 92.142C135.788 91.0713 135.788 89.3353 134.717 88.2646Z" fill="#303030"/>
<path fill-rule="evenodd" clip-rule="evenodd" d="M135.52 90.2033C135.52 91.7176 134.292 92.9451 132.778 92.9451L91.9232 92.9451C90.409 92.9451 89.1814 91.7176 89.1814 90.2033C89.1814 88.6891 90.409 87.4615 91.9232 87.4615L132.778 87.4615C134.292 87.4615 135.52 88.6891 135.52 90.2033Z" fill="#303030"/>
<path fill-rule="evenodd" clip-rule="evenodd" d="M110.412 49.1118C111.483 48.0411 113.219 48.0411 114.29 49.1118L134.717 69.5393C135.788 70.6101 135.788 72.3461 134.717 73.4168C133.647 74.4876 131.911 74.4876 130.84 73.4168L110.412 52.9893C109.342 51.9186 109.342 50.1826 110.412 49.1118Z" fill="#303030"/>
<path fill-rule="evenodd" clip-rule="evenodd" d="M100.672 81.9282C99.6009 82.9989 97.8649 82.9989 96.7942 81.9282L88.2827 73.4167C87.212 72.346 87.212 70.61 88.2827 69.5392C89.3535 68.4685 91.0895 68.4685 92.1602 69.5392L100.672 78.0507C101.742 79.1214 101.742 80.8575 100.672 81.9282Z" fill="#303030"/>
<path fill-rule="evenodd" clip-rule="evenodd" d="M134.481 48.3087C132.967 48.3087 131.739 49.5362 131.739 51.0505V71.478C131.739 72.9922 132.967 74.2198 134.481 74.2198C135.995 74.2198 137.223 72.9922 137.223 71.478V51.0505C137.223 49.5362 135.995 48.3087 134.481 48.3087Z" fill="#303030"/>
<path fill-rule="evenodd" clip-rule="evenodd" d="M124.03 81.9281C125.101 82.9989 126.837 82.9989 127.908 81.9281L136.419 73.4167C137.49 72.3459 137.49 70.6099 136.419 69.5392C135.349 68.4684 133.613 68.4684 132.542 69.5392L124.03 78.0506C122.96 79.1214 122.96 80.8574 124.03 81.9281Z" fill="#303030"/>
<path d="M111.806 102.091L115.683 105.969L111.806 109.846L107.928 105.969L111.806 102.091Z" fill="#303030"/>
<path d="M97.1826 114.886L101.06 118.764L97.1826 122.641L93.3051 118.764L97.1826 114.886Z" fill="#303030"/>
<path d="M126.345 114.886L130.222 118.764L126.345 122.641L122.467 118.764L126.345 114.886Z" fill="#303030"/>
<path d="M140.968 127.682L144.845 131.559L140.968 135.437L137.09 131.559L140.968 127.682Z" fill="#303030"/>
<path d="M126.345 140.477L130.222 144.354L126.345 148.232L122.467 144.354L126.345 140.477Z" fill="#303030"/>
<path d="M113.55 153.272L117.427 157.149L113.55 161.027L109.672 157.149L113.55 153.272Z" fill="#303030"/>
<path d="M113.55 127.682L117.427 131.559L113.55 135.437L109.672 131.559L113.55 127.682Z" fill="#303030"/>
<path d="M98.9268 140.477L102.804 144.354L98.9268 148.232L95.0493 144.354L98.9268 140.477Z" fill="#303030"/>
<path d="M84.3877 127.682L88.2652 131.559L84.3877 135.437L80.5102 131.559L84.3877 127.682Z" fill="#303030"/>
<path fill-rule="evenodd" clip-rule="evenodd" d="M98.7889 107.575L75.0266 131.337L73.0879 129.398L96.8502 105.636L98.7889 107.575Z" fill="#303030"/>
<path fill-rule="evenodd" clip-rule="evenodd" d="M98.7889 107.575L75.0266 131.337L73.0879 129.398L96.8502 105.636L98.7889 107.575Z" fill="#303030"/>
<path fill-rule="evenodd" clip-rule="evenodd" d="M127.951 107.575L89.5657 145.96L87.627 144.021L126.012 105.636L127.951 107.575Z" fill="#303030"/>
<path fill-rule="evenodd" clip-rule="evenodd" d="M127.951 107.575L89.5657 145.96L87.627 144.021L126.012 105.636L127.951 107.575Z" fill="#303030"/>
<path fill-rule="evenodd" clip-rule="evenodd" d="M140.746 120.37L102.361 158.755L100.422 156.817L138.807 118.431L140.746 120.37Z" fill="#303030"/>
<path fill-rule="evenodd" clip-rule="evenodd" d="M140.746 120.37L102.361 158.755L100.422 156.817L138.807 118.431L140.746 120.37Z" fill="#303030"/>
<path fill-rule="evenodd" clip-rule="evenodd" d="M104.385 116.599L95.0204 107.69L96.9102 105.704L106.275 114.612L104.385 116.599Z" fill="#303030"/>
<path fill-rule="evenodd" clip-rule="evenodd" d="M104.385 116.599L95.0204 107.69L96.9102 105.704L106.275 114.612L104.385 116.599Z" fill="#303030"/>
<path fill-rule="evenodd" clip-rule="evenodd" d="M148.057 131.337L124.295 107.575L126.234 105.636L149.996 129.399L148.057 131.337Z" fill="#303030"/>
<path fill-rule="evenodd" clip-rule="evenodd" d="M148.057 131.337L124.295 107.575L126.234 105.636L149.996 129.399L148.057 131.337Z" fill="#303030"/>
<path fill-rule="evenodd" clip-rule="evenodd" d="M91.7022 129.279L82.3378 120.37L84.2275 118.384L93.592 127.292L91.7022 129.279Z" fill="#303030"/>
<path fill-rule="evenodd" clip-rule="evenodd" d="M91.7022 129.279L82.3378 120.37L84.2275 118.384L93.592 127.292L91.7022 129.279Z" fill="#303030"/>
<path fill-rule="evenodd" clip-rule="evenodd" d="M108.069 142.074L98.7049 133.165L100.595 131.179L109.959 140.087L108.069 142.074Z" fill="#303030"/>
<path fill-rule="evenodd" clip-rule="evenodd" d="M108.069 142.074L98.7049 133.165L100.595 131.179L109.959 140.087L108.069 142.074Z" fill="#303030"/>
<path fill-rule="evenodd" clip-rule="evenodd" d="M120.639 129.509L113.328 122.198L115.267 120.259L122.578 127.571L120.639 129.509Z" fill="#303030"/>
<path fill-rule="evenodd" clip-rule="evenodd" d="M120.639 129.509L113.328 122.198L115.267 120.259L122.578 127.571L120.639 129.509Z" fill="#303030"/>
<path fill-rule="evenodd" clip-rule="evenodd" d="M135.487 143.901L126.123 134.993L128.013 133.006L137.377 141.915L135.487 143.901Z" fill="#303030"/>
<path fill-rule="evenodd" clip-rule="evenodd" d="M135.487 143.901L126.123 134.993L128.013 133.006L137.377 141.915L135.487 143.901Z" fill="#303030"/>
<path fill-rule="evenodd" clip-rule="evenodd" d="M122.692 156.697L113.328 147.788L115.218 145.802L124.582 154.71L122.692 156.697Z" fill="#303030"/>
<path fill-rule="evenodd" clip-rule="evenodd" d="M122.692 156.697L113.328 147.788L115.218 145.802L124.582 154.71L122.692 156.697Z" fill="#303030"/>
<path fill-rule="evenodd" clip-rule="evenodd" d="M95.6954 102.091C95.8739 102.27 95.8739 102.559 95.6954 102.738L68.2774 130.156L67.6311 129.509L95.0492 102.091C95.2276 101.913 95.517 101.913 95.6954 102.091Z" fill="#C5C3C3"/>
<path fill-rule="evenodd" clip-rule="evenodd" d="M121.286 105.747C121.464 105.926 121.464 106.215 121.286 106.393L112.146 115.533L111.5 114.886L120.64 105.747C120.818 105.569 121.107 105.569 121.286 105.747Z" fill="#C5C3C3"/>
<path fill-rule="evenodd" clip-rule="evenodd" d="M131.93 120.047C132.108 120.225 132.108 120.515 131.93 120.693L126.446 126.177L125.8 125.531L131.284 120.047C131.462 119.868 131.751 119.868 131.93 120.047Z" fill="#C5C3C3"/>
<path fill-rule="evenodd" clip-rule="evenodd" d="M118.488 118.219C118.667 118.041 118.956 118.041 119.135 118.219L126.446 125.531C126.625 125.709 126.625 125.998 126.446 126.177C126.268 126.355 125.978 126.355 125.8 126.177L118.488 118.865C118.31 118.687 118.31 118.398 118.488 118.219Z" fill="#C5C3C3"/>
<path fill-rule="evenodd" clip-rule="evenodd" d="M120.963 131.014C121.141 131.193 121.141 131.482 120.963 131.66L113.651 138.972L113.005 138.326L120.316 131.014C120.495 130.836 120.784 130.836 120.963 131.014Z" fill="#C5C3C3"/>
<path fill-rule="evenodd" clip-rule="evenodd" d="M105.693 131.014C105.871 130.836 106.161 130.836 106.339 131.014L113.651 138.326C113.829 138.504 113.829 138.793 113.651 138.972C113.472 139.15 113.183 139.15 113.004 138.972L105.693 131.66C105.515 131.482 105.515 131.193 105.693 131.014Z" fill="#C5C3C3"/>
<path fill-rule="evenodd" clip-rule="evenodd" d="M133.757 145.637C133.936 145.816 133.936 146.105 133.757 146.283L126.446 153.595L125.8 152.949L133.111 145.637C133.29 145.459 133.579 145.459 133.757 145.637Z" fill="#C5C3C3"/>
<path fill-rule="evenodd" clip-rule="evenodd" d="M118.488 145.637C118.667 145.459 118.956 145.459 119.135 145.637L126.446 152.949C126.625 153.127 126.625 153.416 126.446 153.595C126.268 153.773 125.978 153.773 125.8 153.595L118.488 146.283C118.31 146.105 118.31 145.816 118.488 145.637Z" fill="#C5C3C3"/>
<path fill-rule="evenodd" clip-rule="evenodd" d="M148.38 132.842C148.559 133.02 148.559 133.31 148.38 133.488L141.069 140.8L140.423 140.154L147.734 132.842C147.913 132.664 148.202 132.664 148.38 132.842Z" fill="#C5C3C3"/>
<path fill-rule="evenodd" clip-rule="evenodd" d="M133.111 132.842C133.29 132.664 133.579 132.664 133.758 132.842L141.069 140.154C141.248 140.332 141.248 140.621 141.069 140.8C140.891 140.978 140.601 140.978 140.423 140.8L133.111 133.488C132.933 133.31 132.933 133.021 133.111 132.842Z" fill="#C5C3C3"/>
<path fill-rule="evenodd" clip-rule="evenodd" d="M108.168 143.809C108.346 143.988 108.346 144.277 108.168 144.455L99.0283 153.595L98.382 152.949L107.521 143.809C107.7 143.631 107.989 143.631 108.168 143.809Z" fill="#C5C3C3"/>
<path fill-rule="evenodd" clip-rule="evenodd" d="M91.0704 145.637C91.2489 145.459 91.5382 145.459 91.7167 145.637L99.0282 152.949C99.2066 153.127 99.2066 153.416 99.0282 153.595C98.8497 153.773 98.5604 153.773 98.3819 153.595L91.0704 146.283C90.892 146.105 90.892 145.816 91.0704 145.637Z" fill="#C5C3C3"/>
<path fill-rule="evenodd" clip-rule="evenodd" d="M120.963 158.432C121.141 158.611 121.141 158.9 120.963 159.078L111.823 168.218L111.177 167.571L120.316 158.432C120.495 158.254 120.784 158.254 120.963 158.432Z" fill="#C5C3C3"/>
<path fill-rule="evenodd" clip-rule="evenodd" d="M103.865 147.465C104.044 147.287 104.333 147.287 104.512 147.465L111.823 154.776C112.002 154.955 112.002 155.244 111.823 155.423C111.645 155.601 111.355 155.601 111.177 155.423L103.865 148.111C103.687 147.933 103.687 147.643 103.865 147.465Z" fill="#C5C3C3"/>
<path fill-rule="evenodd" clip-rule="evenodd" d="M95.3722 129.186C95.5506 129.365 95.5506 129.654 95.3722 129.833L84.405 140.8L83.7587 140.153L94.7259 129.186C94.9044 129.008 95.1937 129.008 95.3722 129.186Z" fill="#C5C3C3"/>
<path fill-rule="evenodd" clip-rule="evenodd" d="M76.4474 132.842C76.6258 132.664 76.9152 132.664 77.0936 132.842L84.4051 140.154C84.5836 140.332 84.5836 140.621 84.4051 140.8C84.2267 140.978 83.9373 140.978 83.7589 140.8L76.4474 133.488C76.2689 133.31 76.2689 133.021 76.4474 132.842Z" fill="#C5C3C3"/>
<path fill-rule="evenodd" clip-rule="evenodd" d="M108.168 116.391C108.346 116.57 108.346 116.859 108.168 117.037L97.2004 128.005L96.5541 127.358L107.521 116.391C107.7 116.213 107.989 116.213 108.168 116.391Z" fill="#C5C3C3"/>
<path fill-rule="evenodd" clip-rule="evenodd" d="M89.2423 120.047C89.4208 119.868 89.7101 119.868 89.8886 120.047L97.2 127.358C97.3785 127.537 97.3785 127.826 97.2 128.005C97.0216 128.183 96.7322 128.183 96.5538 128.005L89.2423 120.693C89.0638 120.515 89.0638 120.225 89.2423 120.047Z" fill="#C5C3C3"/>
<path fill-rule="evenodd" clip-rule="evenodd" d="M102.361 105.747L111.5 114.886L112.146 114.24L103.007 105.101C102.829 104.922 102.539 104.922 102.361 105.101C102.182 105.279 102.182 105.569 102.361 105.747Z" fill="#C5C3C3"/>
<path fill-rule="evenodd" clip-rule="evenodd" d="M130.018 101.768L157.436 129.186L156.79 129.833L129.372 102.414C129.194 102.236 129.194 101.947 129.372 101.768C129.55 101.59 129.84 101.59 130.018 101.768Z" fill="#C5C3C3"/>
<path fill-rule="evenodd" clip-rule="evenodd" d="M111.5 174.024C111.321 174.203 111.032 174.203 110.854 174.024L66.9848 130.156L67.631 129.509L111.5 173.378C111.678 173.557 111.678 173.846 111.5 174.024Z" fill="#C5C3C3"/>
<path fill-rule="evenodd" clip-rule="evenodd" d="M111.5 173.378L157.113 129.509L157.747 130.168L112.134 174.037C111.952 174.212 111.662 174.206 111.488 174.024C111.313 173.842 111.318 173.553 111.5 173.378Z" fill="#C5C3C3"/>
<path fill-rule="evenodd" clip-rule="evenodd" d="M35.2706 47.0994C35.6583 46.7763 36.2346 46.8287 36.5577 47.2164L45.6971 58.1837C46.0202 58.5714 45.9678 59.1477 45.5801 59.4709C45.1923 59.794 44.616 59.7416 44.2929 59.3538L35.1535 48.3866C34.8304 47.9989 34.8828 47.4226 35.2706 47.0994Z" fill="#303030"/>
<path fill-rule="evenodd" clip-rule="evenodd" d="M35.8556 46.8876C36.3603 46.8876 36.7695 47.2968 36.7695 47.8015V58.7687C36.7695 59.2735 36.3603 59.6827 35.8556 59.6827C35.3508 59.6827 34.9417 59.2735 34.9417 58.7687V47.8015C34.9417 47.2968 35.3508 46.8876 35.8556 46.8876Z" fill="#303030"/>
<path fill-rule="evenodd" clip-rule="evenodd" d="M44.9948 46.8876C45.4995 46.8876 45.9087 47.2968 45.9087 47.8015V58.7687C45.9087 59.2735 45.4995 59.6827 44.9948 59.6827C44.49 59.6827 44.0808 59.2735 44.0808 58.7687V47.8015C44.0808 47.2968 44.49 46.8876 44.9948 46.8876Z" fill="#303030"/>
<path fill-rule="evenodd" clip-rule="evenodd" d="M177.844 47.0994C178.232 46.7763 178.808 46.8287 179.131 47.2164L188.271 58.1837C188.594 58.5714 188.542 59.1477 188.154 59.4709C187.766 59.794 187.19 59.7416 186.867 59.3538L177.727 48.3866C177.404 47.9989 177.457 47.4226 177.844 47.0994Z" fill="#303030"/>
<path fill-rule="evenodd" clip-rule="evenodd" d="M178.429 46.8876C178.934 46.8876 179.343 47.2968 179.343 47.8015V58.7687C179.343 59.2735 178.934 59.6827 178.429 59.6827C177.925 59.6827 177.515 59.2735 177.515 58.7687V47.8015C177.515 47.2968 177.925 46.8876 178.429 46.8876Z" fill="#303030"/>
<path fill-rule="evenodd" clip-rule="evenodd" d="M187.568 46.8876C188.073 46.8876 188.482 47.2968 188.482 47.8015V58.7687C188.482 59.2735 188.073 59.6827 187.568 59.6827C187.064 59.6827 186.655 59.2735 186.655 58.7687V47.8015C186.655 47.2968 187.064 46.8876 187.568 46.8876Z" fill="#303030"/>
<path d="M183.476 51.9301L186.655 47.7274L187.569 47.7274L187.508 49.1083L183.476 51.9301Z" fill="#303030"/>
<path d="M182.085 54.125L179.343 58.6947L178.429 59.6086L178.429 56.8668L182.085 54.125Z" fill="#303030"/>
<path fill-rule="evenodd" clip-rule="evenodd" d="M48.0655 184.19C48.4532 183.866 49.0295 183.919 49.3527 184.307L58.492 195.274C58.8151 195.662 58.7628 196.238 58.375 196.561C57.9872 196.884 57.4109 196.832 57.0878 196.444L47.9485 185.477C47.6253 185.089 47.6777 184.513 48.0655 184.19Z" fill="#303030"/>
<path fill-rule="evenodd" clip-rule="evenodd" d="M48.6505 183.978C49.1553 183.978 49.5645 184.387 49.5645 184.892V195.859C49.5645 196.364 49.1553 196.773 48.6505 196.773C48.1458 196.773 47.7366 196.364 47.7366 195.859V184.892C47.7366 184.387 48.1458 183.978 48.6505 183.978Z" fill="#303030"/>
<path fill-rule="evenodd" clip-rule="evenodd" d="M57.7897 183.978C58.2944 183.978 58.7036 184.387 58.7036 184.892V195.859C58.7036 196.364 58.2944 196.773 57.7897 196.773C57.2849 196.773 56.8757 196.364 56.8757 195.859V184.892C56.8757 184.387 57.2849 183.978 57.7897 183.978Z" fill="#303030"/>
<path d="M53.697 189.02L56.8758 184.818L57.7897 184.818L57.7295 186.198L53.697 189.02Z" fill="#303030"/>
<path d="M52.3061 191.215L49.5642 195.785L48.6503 196.699L48.6503 193.957L52.3061 191.215Z" fill="#303030"/>
<path fill-rule="evenodd" clip-rule="evenodd" d="M163.221 184.19C163.609 183.866 164.185 183.919 164.508 184.307L173.648 195.274C173.971 195.662 173.919 196.238 173.531 196.561C173.143 196.884 172.567 196.832 172.244 196.444L163.104 185.477C162.781 185.089 162.833 184.513 163.221 184.19Z" fill="#303030"/>
<path fill-rule="evenodd" clip-rule="evenodd" d="M163.806 183.978C164.311 183.978 164.72 184.387 164.72 184.892V195.859C164.72 196.364 164.311 196.773 163.806 196.773C163.302 196.773 162.892 196.364 162.892 195.859V184.892C162.892 184.387 163.302 183.978 163.806 183.978Z" fill="#303030"/>
<path fill-rule="evenodd" clip-rule="evenodd" d="M172.945 183.978C173.45 183.978 173.859 184.387 173.859 184.892V195.859C173.859 196.364 173.45 196.773 172.945 196.773C172.441 196.773 172.032 196.364 172.032 195.859V184.892C172.032 184.387 172.441 183.978 172.945 183.978Z" fill="#303030"/>
<path d="M168.853 189.02L172.032 184.818L172.945 184.818L172.885 186.198L168.853 189.02Z" fill="#303030"/>
<path d="M167.462 191.215L164.72 195.785L163.806 196.699L163.806 193.957L167.462 191.215Z" fill="#303030"/>
<path d="M40.9021 51.93L44.0809 47.7274L44.9948 47.7274L44.9345 49.1083L40.9021 51.93Z" fill="#303030"/>
<path d="M39.5112 54.1249L36.7693 58.6946L35.8554 59.6086L35.8554 56.8668L39.5112 54.1249Z" fill="#303030"/>
</svg>