<svg width="223" height="223" viewBox="0 0 223 223" fill="none" xmlns="http://www.w3.org/2000/svg">
<path d="M41.9658 46.8667C48.6027 38.8003 69.1057 21.8711 98.0221 18.6854C126.939 15.4997 149.484 24.5055 157.142 29.4066C160.613 31.3466 169.639 37.0645 177.971 44.4162" stroke="#C5C3C3"/>
<path d="M192.674 58.2005C196.452 63.2037 204.376 77.3761 205.846 94.0398" stroke="#C5C3C3"/>
<path d="M47.1729 48.7046C54.5245 40.2298 76.4569 23.0964 105.373 22.3612C134.29 21.6261 153.363 30.6318 159.285 35.2266C162.655 37.2687 170.313 42.3945 173.989 46.5604" stroke="#C5C3C3"/>
<path d="M189.305 61.57C191.858 64.8374 197.576 74.1291 200.026 85.1566" stroke="#C5C3C3"/>
<path d="M54.5249 48.7047C57.0776 46.6625 62.7955 42.272 65.2461 41.0467" stroke="#C5C3C3"/>
<path d="M82.3999 33.695C83.3189 33.0824 86.6884 31.6121 92.8147 30.6318" stroke="#C5C3C3"/>
<path d="M98.6348 29.1002C100.983 28.6918 107.886 27.9975 116.708 28.4876" stroke="#C5C3C3"/>
<path d="M128.654 29.7129C130.288 29.9171 135.209 30.9994 141.826 33.695" stroke="#C5C3C3"/>
<path d="M157.142 40.1277C158.877 41.353 163.574 44.7838 168.475 48.7046" stroke="#C5C3C3"/>
<path d="M40.1279 81.4807C42.9869 73.9249 52.3194 56.4851 66.7777 47.173C81.2359 37.861 91.5895 35.9414 94.959 36.1456" stroke="#C5C3C3"/>
<path d="M105.68 33.3887C107.926 33.1845 114.685 33.1436 123.752 34.614" stroke="#C5C3C3"/>
<path d="M128.348 35.2266C133.453 35.9414 146.543 39.5763 158.061 48.3983" stroke="#C5C3C3"/>
<path d="M169.088 58.2005C172.355 61.7742 179.748 71.556 183.179 82.0934" stroke="#C5C3C3"/>
<path d="M186.548 78.4175C187.773 81.1744 190.346 87.7296 190.836 91.8956" stroke="#C5C3C3"/>
<path d="M192.062 77.1923C192.981 78.9281 194.941 83.4412 195.432 87.6071" stroke="#C5C3C3"/>
<path d="M62.4888 56.0563C66.1646 52.2784 77.1921 43.9261 91.8954 40.7404" stroke="#C5C3C3"/>
<path d="M95.5713 40.1277C97.1029 39.5151 102.004 38.5961 106.292 38.9025" stroke="#C5C3C3"/>
<path d="M118.545 38.5961C126.203 38.8003 144.766 42.0882 157.754 53.6057C170.742 65.1233 177.461 78.2133 179.197 83.3187" stroke="#C5C3C3"/>
<path d="M79.9492 53.6057C77.4987 54.7289 71.1885 58.3843 65.5522 64.0206" stroke="#C5C3C3"/>
<path d="M91.2832 47.7857L97.4096 46.2541" stroke="#C5C3C3"/>
<path d="M121.608 45.3351C124.059 45.3351 129.573 46.2541 132.942 48.3983" stroke="#C5C3C3"/>
<path d="M58.8132 60.3448C55.2394 64.2248 47.2956 74.3129 44.1099 83.625" stroke="#C5C3C3"/>
<path d="M68.0029 67.3901C70.8619 64.8374 76.6411 59.7934 76.8862 60.0384" stroke="#C5C3C3"/>
<path d="M62.7954 80.2555C65.9607 75.5586 75.2319 65.0621 86.9946 60.6511" stroke="#C5C3C3"/>
<path d="M28.1811 59.1195C25.0158 64.7353 18.2564 79.7041 16.541 94.6524" stroke="#C5C3C3"/>
<path d="M32.1635 60.9574C29.5088 64.7353 23.4641 76.6409 20.5234 94.0398" stroke="#C5C3C3"/>
<path d="M33.0824 72.5975C32.3677 74.2312 30.6931 78.4788 29.7129 82.3997" stroke="#C5C3C3"/>
<path d="M36.7584 77.4986C34.9205 81.685 31.4285 90.2415 32.1636 90.9766" stroke="#C5C3C3"/>
<path d="M27.2626 91.8956C26.5478 94.0398 25.0571 100.166 24.812 107.518" stroke="#C5C3C3"/>
<path d="M51.7678 78.1112C49.6236 81.4807 45.0901 90.2414 44.1099 98.3282" stroke="#C5C3C3"/>
<path d="M54.5247 83.3187C52.3804 86.484 47.8469 96.0003 46.8667 108.743" stroke="#C5C3C3"/>
<path d="M34.9204 90.9766C34.512 91.6914 33.5726 94.3461 33.0825 99.2472" stroke="#C5C3C3"/>
<path d="M147.646 56.0563C151.321 58.609 159.714 65.1846 163.88 71.0659" stroke="#C5C3C3"/>
<path d="M151.015 64.0206C152.751 65.3479 156.223 68.6153 158.979 71.3722" stroke="#C5C3C3"/>
<path d="M137.231 60.6511C141.009 62.2848 150.219 67.6351 156.835 75.967" stroke="#C5C3C3"/>
<path d="M168.782 73.8228C170.109 75.967 173.193 81.297 174.908 85.4629" stroke="#C5C3C3"/>
<path d="M165.412 77.1923C167.658 80.6639 171.232 87.3008 172.764 93.4272" stroke="#C5C3C3"/>
<path d="M181.647 90.9766C185.221 102.413 188.631 130.553 173.683 151.628" stroke="#C5C3C3"/>
<path d="M161.736 79.3365C163.268 81.4807 167.066 88.281 170.007 98.3282" stroke="#C5C3C3"/>
<path d="M178.277 95.8777C180.422 105.578 182.505 128.347 173.683 141.825" stroke="#C5C3C3"/>
<path d="M175.521 108.13C175.929 114.972 175.705 129.94 171.539 135.087" stroke="#C5C3C3"/>
<path d="M168.169 129.879C166.433 137.741 157.08 156.039 133.555 166.331" stroke="#C5C3C3"/>
<path d="M190.224 128.96C190.122 129.777 190.224 132.575 188.999 134.78" stroke="#C5C3C3"/>
<path d="M195.738 129.266C195.329 132.125 194.084 138.946 192.368 143.357" stroke="#C5C3C3"/>
<path d="M203.396 119.771C203.089 129.164 199.781 151.321 188.999 164.799" stroke="#C5C3C3"/>
<path d="M207.378 119.464C207.48 127.122 205.172 146.604 195.125 163.268" stroke="#C5C3C3"/>
<path d="M188.999 154.078C186.855 157.754 182.505 164.983 182.26 164.493" stroke="#C5C3C3"/>
<path d="M184.404 150.709L178.584 159.286" stroke="#C5C3C3"/>
<path d="M185.629 139.069C180.932 149.688 166.147 173.254 144.583 182.566" stroke="#C5C3C3"/>
<path d="M193.9 166.331C191.551 170.211 185.69 179.074 181.034 183.485" stroke="#C5C3C3"/>
<path d="M173.989 184.098C177.154 181.034 183.975 174.173 185.935 171.232" stroke="#C5C3C3"/>
<path d="M168.782 182.872C171.028 180.83 176.011 176.133 177.971 173.683" stroke="#C5C3C3"/>
<path d="M154.997 181.647C157.958 179.809 164.677 175.214 167.862 171.538" stroke="#C5C3C3"/>
<path d="M127.735 183.485C134.882 182.157 152.118 176.256 163.88 163.268" stroke="#C5C3C3"/>
<path d="M144.276 166.025C148.564 164.085 159.531 156.223 169.088 140.294" stroke="#C5C3C3"/>
<path d="M163.88 154.385C165.106 153.159 167.985 149.974 169.7 147.033" stroke="#C5C3C3"/>
<path d="M130.186 165.718C130.288 165.923 128.286 167.25 119.464 168.475" stroke="#C5C3C3"/>
<path d="M134.168 170.313L126.816 172.457" stroke="#C5C3C3"/>
<path d="M137.537 174.295C135.801 175.214 131.227 177.236 126.816 177.971" stroke="#C5C3C3"/>
<path d="M124.059 175.521C117.014 176.235 111.194 177.665 96.4902 175.521" stroke="#C5C3C3"/>
<path d="M78.7241 160.817C81.5831 162.859 90.0579 167.372 101.085 169.088" stroke="#C5C3C3"/>
<path d="M86.0757 151.628L101.392 166.331" stroke="#C5C3C3"/>
<path d="M120.077 168.475L138.456 151.015" stroke="#C5C3C3"/>
<path d="M95.2651 172.457C91.1808 171.743 80.9906 168.537 72.9038 161.43" stroke="#C5C3C3"/>
<path d="M92.8147 177.665C91.6916 177.359 88.2199 176.133 83.3188 173.683" stroke="#C5C3C3"/>
<path d="M96.1839 184.097C90.2618 182.974 75.9057 178.584 65.8584 170.007" stroke="#C5C3C3"/>
<path d="M116.707 186.548C114.052 186.854 106.844 187.161 99.2471 185.935" stroke="#C5C3C3"/>
<path d="M61.5698 192.368C77.6005 203.089 119.954 218.099 161.123 192.368" stroke="#C5C3C3"/>
<path d="M61.5698 196.657C77.6005 207.378 119.954 222.387 161.123 196.657" stroke="#C5C3C3"/>
<path d="M49.0107 127.122C49.3171 128.654 50.236 132.268 51.4613 134.474" stroke="#C5C3C3"/>
<path d="M59.7319 140.6C61.8762 144.072 67.88 152.363 74.7415 157.754" stroke="#C5C3C3"/>
<path d="M63.1018 152.853C60.7534 150.096 55.5664 143.418 53.606 138.762" stroke="#C5C3C3"/>
<path d="M67.3903 163.268C58.0986 155.916 40.0667 134.658 42.2722 108.437" stroke="#C5C3C3"/>
<path d="M39.5151 131.104C40.1278 133.861 42.3333 141.09 46.2541 147.952" stroke="#C5C3C3"/>
<path d="M38.9027 100.779C38.29 105.884 37.4323 118.362 38.9027 127.429" stroke="#C5C3C3"/>
<path d="M32.4697 118.239C32.776 132.125 42.2719 164.493 77.8049 182.872" stroke="#C5C3C3"/>
<path d="M27.875 128.96C28.0792 131.819 29.4679 139.314 33.3887 146.42" stroke="#C5C3C3"/>
<path d="M37.6772 148.565C38.2899 150.505 40.1891 155.12 42.8847 158.06" stroke="#C5C3C3"/>
<path d="M54.5249 172.764C57.0776 175.01 62.7955 179.993 65.2461 181.953" stroke="#C5C3C3"/>
<path d="M33.3887 154.385C34.6139 156.631 37.6159 161.859 39.8214 164.799" stroke="#C5C3C3"/>
<path d="M53.6056 183.179C50.8487 180.932 45.1512 175.888 44.416 173.683" stroke="#C5C3C3"/>
<path d="M38.9023 173.376C40.3318 175.214 44.171 179.932 48.0919 184.097" stroke="#C5C3C3"/>
<path d="M29.4067 167.863C31.4489 171.232 36.9422 179.258 42.5784 184.404" stroke="#C5C3C3"/>
<path d="M19.6045 122.834C19.8087 130.083 22.8515 148.626 33.3888 164.799" stroke="#C5C3C3"/>
<path d="M15.3159 124.672C16.337 133.861 20.3395 154.63 28.1813 164.187" stroke="#C5C3C3"/>
</svg>